<svg width="14" height="14" viewBox="0 0 14 14" fill="none" xmlns="http://www.w3.org/2000/svg">
<path fill-rule="evenodd" clip-rule="evenodd" d="M7.00016 8.16671C7.64449 8.16671 8.16683 7.64437 8.16683 7.00004C8.16683 6.35571 7.64449 5.83337 7.00016 5.83337C6.35583 5.83337 5.8335 6.35571 5.8335 7.00004C5.8335 7.64437 6.35583 8.16671 7.00016 8.16671Z" stroke="#422F8A" stroke-opacity="0.87" stroke-width="1.16667" stroke-linecap="round" stroke-linejoin="round"/>
<path fill-rule="evenodd" clip-rule="evenodd" d="M11.6667 8.16671C12.311 8.16671 12.8333 7.64437 12.8333 7.00004C12.8333 6.35571 12.311 5.83337 11.6667 5.83337C11.0223 5.83337 10.5 6.35571 10.5 7.00004C10.5 7.64437 11.0223 8.16671 11.6667 8.16671Z" stroke="#422F8A" stroke-opacity="0.87" stroke-width="1.16667" stroke-linecap="round" stroke-linejoin="round"/>
<path fill-rule="evenodd" clip-rule="evenodd" d="M2.33317 8.16671C2.9775 8.16671 3.49984 7.64437 3.49984 7.00004C3.49984 6.35571 2.9775 5.83337 2.33317 5.83337C1.68884 5.83337 1.1665 6.35571 1.1665 7.00004C1.1665 7.64437 1.68884 8.16671 2.33317 8.16671Z" stroke="#422F8A" stroke-opacity="0.87" stroke-width="1.16667" stroke-linecap="round" stroke-linejoin="round"/>
</svg>
