<svg width="909" height="197" viewBox="0 0 909 197" fill="none" xmlns="http://www.w3.org/2000/svg">
<path d="M2 181.794C41.8055 175.629 74.5382 138.034 122.033 131.715C147.348 128.347 167.627 134.902 190.254 145.088C212.88 155.273 208.451 159.671 259.338 167.524C301.331 174.004 312.315 104.14 353.465 106.825C394.614 109.509 413.646 25.5119 457.091 32.5236C500.535 39.5353 509.216 21.4067 550.054 55.7643C590.892 90.1218 628.622 10.0367 679.886 3.02493C731.151 -3.98681 744.503 70.4346 768.832 67.6299C793.161 64.8252 815.066 117.855 835.92 125.568C856.773 133.281 862.686 105.263 907 105.263" stroke="#422F8A" stroke-opacity="0.87" stroke-width="4" stroke-linecap="round" stroke-linejoin="round"/>
<path d="M122.033 131.715C74.5382 138.034 41.8055 175.629 2 181.794V197H907V105.263C862.686 105.263 856.773 133.281 835.919 125.568C815.066 117.855 793.161 64.8252 768.832 67.6299C744.503 70.4346 731.151 -3.98681 679.886 3.02493C628.622 10.0367 590.892 90.1218 550.054 55.7643C509.216 21.4067 500.535 39.5353 457.091 32.5236C413.646 25.5119 394.614 109.509 353.465 106.825C312.315 104.14 301.331 174.004 259.338 167.524C208.451 159.671 212.88 155.273 190.254 145.088C167.627 134.902 147.348 128.347 122.033 131.715Z" fill="url(#paint0_linear_580_48748)"/>
<defs>
<linearGradient id="paint0_linear_580_48748" x1="454.5" y1="2.55859" x2="454.5" y2="278.334" gradientUnits="userSpaceOnUse">
<stop stop-color="#7459D9" stop-opacity="0.1"/>
<stop offset="0.998978" stop-color="white" stop-opacity="0"/>
</linearGradient>
</defs>
</svg>
