<svg width="61" height="60" viewBox="0 0 61 60" fill="none" xmlns="http://www.w3.org/2000/svg">
<path opacity="0.7" d="M60.3848 30C60.3848 46.5685 46.9533 60 30.3848 60C13.8162 60 0.384766 46.5685 0.384766 30C0.384766 13.4315 13.8162 0 30.3848 0C46.9533 0 60.3848 13.4315 60.3848 30ZM6.38477 30C6.38477 43.2548 17.1299 54 30.3848 54C43.6396 54 54.3848 43.2548 54.3848 30C54.3848 16.7452 43.6396 6 30.3848 6C17.1299 6 6.38477 16.7452 6.38477 30Z" fill="#787880" fill-opacity="0.16"/>
<path d="M30.3848 3C30.3848 1.34315 31.7314 -0.0155562 33.38 0.149832C39.5999 0.773823 45.4977 3.32973 50.2241 7.49666C55.7039 12.3277 59.2326 18.9923 60.1482 26.24C61.0638 33.4877 59.3034 40.8204 55.1972 46.8625C51.6555 52.0739 46.5786 56.0163 40.7093 58.1675C39.1537 58.7377 37.5115 57.7565 37.0994 56.1517V56.1517C36.6874 54.5469 37.6642 52.9294 39.2051 52.3205C43.663 50.5589 47.5148 47.4923 50.2347 43.49C53.5197 38.6563 54.928 32.7901 54.1955 26.992C53.463 21.1938 50.6401 15.8622 46.2562 11.9973C42.6264 8.79721 38.133 6.7848 33.3771 6.18722C31.7332 5.98066 30.3848 4.65685 30.3848 3V3Z" fill="#7459D9"/>
</svg>
